# xmcd
#
# Track frame offsets:
#	150
#	20601
#	59579
#	85287
#	104960
#	146958
#	164393
#	183434
#	200774
#
# Disc length: 3021 seconds
#
# Revision: 0
# Processed by: cddbd v1.5.2PL0 Copyright (c) Steve Scherf et al.
# Submitted via: audiograbber 1.83.01
#
DISCID=8e0bcb09
DTITLE=Jimi Hendrix - Killing Floor
DYEAR=1966
DGENRE=Blues
TTITLE0=Killing Floor
TTITLE1=Catfish Blues
TTITLE2=Foxy Lady
TTITLE3=Red House
TTITLE4=Drivin' South
TTITLE5=The Wind Cries Mary
TTITLE6=Fire
TTITLE7=Little Wing
TTITLE8=Purple Haze
EXTD=
EXTT0=
EXTT1=
EXTT2=
EXTT3=
EXTT4=
EXTT5=
EXTT6=
EXTT7=
EXTT8=
PLAYORDER=
